<svg 
    width="385" 
    height="427" 
    viewBox="0 0 385 427" 
    fill="none" 
    xmlns="http://www.w3.org/2000/svg"
    >
<g>
<path 
    d="M128.726 72.832V405.333C128.726 410.991 126.479 416.418 122.478 420.418C118.477 424.419 113.051 426.667 107.393 426.667C101.735 426.667 96.3086 424.419 92.3079 420.418C88.3071 416.418 86.0595 410.991 86.0595 405.333V72.832L37.1421 121.749C33.1186 125.635 27.7298 127.786 22.1362 127.737C16.5427 127.688 11.192 125.445 7.23667 121.489C3.2813 117.534 1.03769 112.183 0.989088 106.59C0.940481 100.996 3.09076 95.6075 6.9768 91.584L92.3101 6.25067C96.3107 2.25128 101.736 0.00455729 107.393 0.00455729C113.05 0.00455729 118.475 2.25128 122.475 6.25067L207.809 91.584C209.846 93.5519 211.472 95.906 212.59 98.5087C213.708 101.111 214.296 103.911 214.321 106.743C214.345 109.576 213.806 112.385 212.733 115.007C211.66 117.629 210.076 120.011 208.073 122.014C206.07 124.017 203.688 125.601 201.066 126.674C198.445 127.746 195.636 128.286 192.803 128.261C189.97 128.237 187.171 127.648 184.568 126.53C181.965 125.412 179.611 123.787 177.643 121.749L128.726 72.832Z" 
    fill="url(#orientation-gradient_1)" 
    />
<path 
    d="M378.475 304.917C374.475 300.918 369.05 298.671 363.393 298.671C357.736 298.671 352.311 300.918 348.31 304.917L299.393 353.835V21.3333C299.393 15.6754 297.145 10.2492 293.144 6.24839C289.144 2.24761 283.717 0 278.059 0C272.402 0 266.975 2.24761 262.975 6.24839C258.974 10.2492 256.726 15.6754 256.726 21.3333V353.835L207.809 304.917C203.785 301.031 198.396 298.881 192.803 298.93C187.209 298.978 181.859 301.222 177.903 305.177C173.948 309.133 171.704 314.483 171.656 320.077C171.607 325.67 173.757 331.059 177.643 335.083L262.977 420.416C266.977 424.415 272.403 426.662 278.059 426.662C283.716 426.662 289.142 424.415 293.142 420.416L378.475 335.083C382.475 331.082 384.722 325.657 384.722 320C384.722 314.343 382.475 308.918 378.475 304.917Z" 
    fill="url(#orientation-gradient_2)" 
    />
</g>
<defs>
    <linearGradient 
        id="orientation-gradient_1" 
        x1="192.726" 
        y1="426.667" 
        x2="192.726" 
        y2="0" 
        gradientUnits="userSpaceOnUse"
        >
        <stop offset="0"/>
        <stop offset="1"/>
    </linearGradient>
    <linearGradient 
        id="orientation-gradient_2" 
        x1="192.726" 
        y1="426.667" 
        x2="192.726" 
        y2="0" 
        gradientUnits="userSpaceOnUse"
        >
        <stop offset="0"/>
        <stop offset="1"/>
    </linearGradient>
</defs>
</svg>
