<svg width="416" 
    height="427" 
    viewBox="0 0 416 427" 
    fill="none" 
    xmlns="http://www.w3.org/2000/svg">
<path d="M42.983 227.925C43.2854 233.571 41.3343 239.106 37.5581 243.314C33.782 247.522 28.4899 250.059 22.8443 250.368C22.4464 250.389 22.0476 250.389 21.6497 250.368C16.1893 250.376 10.9335 248.29 6.96485 244.54C2.99616 240.79 0.616651 235.66 0.316334 230.208C-1.73663 193.04 6.23155 156.004 23.3881 122.969C40.5446 89.9343 66.2595 62.1144 97.8451 42.417C129.431 22.7195 165.727 11.8678 202.941 10.9961C240.155 10.1243 276.92 19.2645 309.394 37.4613V21.3333C309.394 15.6754 311.641 10.2492 315.642 6.24839C319.643 2.24761 325.069 0 330.727 0C336.385 0 341.811 2.24761 345.812 6.24839C349.813 10.2492 352.06 15.6754 352.06 21.3333V85.3333C352.057 89.8089 350.646 94.1701 348.027 97.7996C345.409 101.429 341.715 104.143 337.468 105.557L273.468 126.891C270.807 127.776 267.997 128.128 265.199 127.928C262.402 127.727 259.671 126.977 257.163 125.722C254.655 124.466 252.419 122.728 250.583 120.608C248.746 118.488 247.346 116.027 246.46 113.365C245.575 110.704 245.223 107.894 245.423 105.096C245.624 102.299 246.374 99.5681 247.629 97.0601C248.885 94.5522 250.623 92.3162 252.743 90.4798C254.863 88.6434 257.324 87.2426 259.986 86.3573L291.047 75.9893C265.271 60.9761 235.91 53.2231 206.082 53.5534C176.254 53.8836 147.072 62.2848 121.634 77.8651C96.1968 93.4453 75.4528 115.623 61.6049 142.044C47.757 168.464 41.322 198.142 42.983 227.925ZM415.442 196.416C415.349 193.598 414.687 190.827 413.494 188.272C412.301 185.717 410.602 183.43 408.5 181.55C406.399 179.669 403.938 178.235 401.266 177.332C398.595 176.43 395.768 176.078 392.956 176.299C387.315 176.613 382.028 179.152 378.256 183.36C374.485 187.567 372.536 193.099 372.839 198.741C374.486 228.521 368.04 258.191 354.184 284.602C340.329 311.014 319.581 333.181 294.143 348.751C268.705 364.322 239.525 372.714 209.702 373.038C179.879 373.362 150.524 365.606 124.754 350.592L155.794 340.224C158.455 339.337 160.916 337.935 163.035 336.097C165.155 334.26 166.892 332.023 168.147 329.514C169.402 327.005 170.15 324.273 170.35 321.475C170.549 318.677 170.195 315.867 169.308 313.205C168.422 310.544 167.019 308.083 165.182 305.964C163.344 303.844 161.107 302.107 158.598 300.852C156.089 299.597 153.358 298.849 150.559 298.65C147.761 298.45 144.951 298.804 142.29 299.691L78.2897 321.024C74.0375 322.45 70.343 325.18 67.7311 328.826C65.1192 332.472 63.7228 336.848 63.7403 341.333V405.333C63.7403 410.991 65.9879 416.418 69.9887 420.418C73.9895 424.419 79.4157 426.667 85.0737 426.667C90.7316 426.667 96.1578 424.419 100.159 420.418C104.159 416.418 106.407 410.991 106.407 405.333V389.099C137.314 406.527 172.194 415.69 207.676 415.701C211.559 415.701 215.442 415.701 219.346 415.381C274.382 412.336 325.956 387.559 362.728 346.498C399.501 305.437 418.461 251.453 415.442 196.416Z" 
    fill="url(#paint0_linear_267_317)"/>
<defs>
<linearGradient 
    id="paint0_linear_267_317" 
    className="linear-gradient" 
    x1="207.911" 
    y1="426.667" 
    x2="207.911" 
    y2="0" 
    gradientUnits="userSpaceOnUse">
<stop offset="0" />
<stop offset="1" />
</linearGradient>
</defs>
</svg>
