<svg 
    width="427" 
    height="299" 
    viewBox="0 0 427 299" 
    fill="none" 
    xmlns="http://www.w3.org/2000/svg"
    >
    <title id="uniqueTitleID">Shuffle Arrows</title>
    <desc id="uniqueDescID">Shuffle the deck randomly in its current state.</desc>
    <path 
        d="M425.024 226.298C423.959 223.695 422.385 221.33 420.395 219.343L377.728 176.677C373.704 172.79 368.316 170.64 362.722 170.689C357.129 170.737 351.778 172.981 347.823 176.936C343.867 180.892 341.624 186.242 341.575 191.836C341.526 197.429 343.677 202.818 347.563 206.842L353.813 213.093H320C310.069 213.066 300.279 210.741 291.396 206.3C282.514 201.859 274.78 195.422 268.8 187.493L240 149.114L268.8 110.714C274.777 102.782 282.511 96.3434 291.394 91.9019C300.277 87.4603 310.068 85.1369 320 85.1139H353.835L347.584 91.3645C345.546 93.3325 343.921 95.6865 342.803 98.2892C341.685 100.892 341.097 103.691 341.072 106.524C341.047 109.357 341.587 112.166 342.66 114.788C343.732 117.409 345.317 119.791 347.32 121.794C349.323 123.797 351.705 125.381 354.326 126.454C356.948 127.527 359.757 128.066 362.59 128.042C365.423 128.017 368.222 127.429 370.825 126.311C373.427 125.193 375.781 123.567 377.749 121.53L420.416 78.8632C422.407 76.8763 423.981 74.5119 425.045 71.9085C427.203 66.6898 427.203 60.8286 425.045 55.6099C423.981 53.0065 422.407 50.642 420.416 48.6552L377.749 5.98852C373.726 2.10248 368.337 -0.0477998 362.743 0.000806456C357.15 0.0494127 351.799 2.29302 347.844 6.2484C343.889 10.2038 341.645 15.5544 341.596 21.148C341.548 26.7415 343.698 32.1303 347.584 36.1539L353.835 42.4472H320C303.448 42.4867 287.129 46.3595 272.324 53.762C257.519 61.1646 244.63 71.8956 234.667 85.1139L213.333 113.551L192 85.1139C182.035 71.898 169.145 61.1687 154.34 53.7665C139.536 46.3642 123.219 42.49 106.667 42.4472H21.3333C15.6754 42.4472 10.2492 44.6948 6.24839 48.6956C2.24761 52.6964 0 58.1226 0 63.7805C0 69.4385 2.24761 74.8647 6.24839 78.8655C10.2492 82.8662 15.6754 85.1139 21.3333 85.1139H106.667C116.598 85.1402 126.388 87.465 135.27 91.9063C144.153 96.3476 151.887 102.785 157.867 110.714L186.667 149.114L157.867 187.514C151.889 195.445 144.156 201.884 135.273 206.326C126.39 210.767 116.598 213.091 106.667 213.114H21.3333C15.6754 213.114 10.2492 215.361 6.24839 219.362C2.24761 223.363 0 228.789 0 234.447C0 240.105 2.24761 245.531 6.24839 249.532C10.2492 253.533 15.6754 255.781 21.3333 255.781H106.667C123.219 255.741 139.538 251.868 154.343 244.466C169.148 237.063 182.037 226.332 192 213.114L213.333 184.677L234.667 213.114C244.632 226.33 257.522 237.059 272.326 244.461C287.131 251.863 303.448 255.738 320 255.781H353.835L347.584 262.031C345.546 263.999 343.921 266.353 342.803 268.956C341.685 271.559 341.097 274.358 341.072 277.191C341.047 280.023 341.587 282.832 342.66 285.454C343.732 288.076 345.317 290.458 347.32 292.461C349.323 294.464 351.705 296.048 354.326 297.121C356.948 298.193 359.757 298.733 362.59 298.709C365.423 298.684 368.222 298.095 370.825 296.977C373.427 295.859 375.781 294.234 377.749 292.197L420.416 249.53C422.407 247.543 423.981 245.179 425.045 242.575C427.19 237.36 427.182 231.508 425.024 226.298Z" 
        fill="url(#shuffle-gradient)"
        />
    <defs>
        <linearGradient 
            id="shuffle-gradient" 
            className="linear-gradient" 
            x1="213.312" 
            y1="298.447" 
            x2="213.312" 
            y2="-0.21948" 
            gradientUnits="userSpaceOnUse"
            >
            <stop offset="0"/>
            <stop offset="1"/>
        </linearGradient>
    </defs>
    <desc>
        Shuffle Icon
    </desc>
</svg>